<svg viewBox="0 0 768 45" fill="none" xmlns="http://www.w3.org/2000/svg">
<path d="M0 42.25V39.3125C4.16667 39.1667 7.41667 38.5417 9.75 37.4375C12.0833 36.3125 13.7188 34.4688 14.6562 31.9062C15.6146 29.3438 16.0938 25.8333 16.0938 21.375C16.0938 18.0833 15.8021 15.3438 15.2188 13.1562C14.6562 10.9479 13.7083 9.21875 12.375 7.96875C11.5 7.17708 10.4688 6.55208 9.28125 6.09375C8.09375 5.63542 6.72917 5.3125 5.1875 5.125C3.64583 4.9375 1.91667 4.84375 0 4.84375V1.90625H52.5312V4.84375C51.6771 4.84375 51 5.05208 50.5 5.46875C50 5.88542 49.6042 6.66667 49.3125 7.8125C49.0417 8.95833 48.8542 10.5625 48.75 12.625C48.6458 14.6875 48.5938 17.3542 48.5938 20.625H62.4062C62.4062 16.2708 62.3021 12.9688 62.0938 10.7188C61.9062 8.44792 61.5312 6.90625 60.9688 6.09375C60.4062 5.26042 59.5729 4.84375 58.4688 4.84375V1.90625H110.938V4.84375C108.104 4.84375 105.667 5.07292 103.625 5.53125C101.583 5.96875 99.9167 6.78125 98.625 7.96875C97.3542 9.15625 96.4062 10.8333 95.7812 13C95.1771 15.1458 94.875 17.9375 94.875 21.375C94.875 25.875 95.3542 29.4062 96.3125 31.9688C97.2708 34.5312 98.9167 36.3646 101.25 37.4688C103.604 38.5521 106.833 39.1667 110.938 39.3125V42.25H58.4688V39.3125C59.1354 39.2083 59.7396 38.6875 60.2812 37.75C60.8438 36.7917 61.3021 35.2604 61.6562 33.1562C62.0312 31.0312 62.2604 28.1771 62.3438 24.5938H48.625C48.6875 27.2812 48.8333 29.5521 49.0625 31.4062C49.3125 33.2396 49.6042 34.7292 49.9375 35.875C50.2917 37.0208 50.6875 37.8646 51.125 38.4062C51.5625 38.9271 52.0312 39.2292 52.5312 39.3125V42.25H0ZM115.062 42.25V39.3125C115.667 39.3125 116.49 39.1354 117.531 38.7812C118.573 38.4062 119.719 37.8333 120.969 37.0625C122.219 36.2708 123.521 35.2708 124.875 34.0625C126.229 32.8333 127.531 31.3333 128.781 29.5625L148.219 1.90625H179.75L196.781 28.875C197.969 30.75 199.26 32.3542 200.656 33.6875C202.052 35 203.438 36.0729 204.812 36.9062C206.167 37.7396 207.438 38.3542 208.625 38.75C209.833 39.125 210.844 39.3125 211.656 39.3125V42.25H151.625V39.3125C152.896 39.3125 154.104 39.0833 155.25 38.625C156.417 38.1667 157.365 37.4792 158.094 36.5625C158.823 35.6458 159.188 34.5104 159.188 33.1562C159.188 32.6979 159.083 32.125 158.875 31.4375H133.969C133.781 31.9375 133.688 32.4167 133.688 32.875C133.688 34.2708 134.052 35.4479 134.781 36.4062C135.531 37.3646 136.479 38.0938 137.625 38.5938C138.792 39.0729 140.01 39.3125 141.281 39.3125V42.25H115.062ZM136.25 27.0938H157C156.562 26.2604 156.052 25.3021 155.469 24.2188C154.885 23.1146 154.198 21.8646 153.406 20.4688C152.615 19.0729 151.719 17.5104 150.719 15.7812C149.74 14.0521 148.625 12.125 147.375 10C145.958 12.1458 144.667 14.0938 143.5 15.8438C142.333 17.5938 141.292 19.1771 140.375 20.5938C139.479 21.9896 138.688 23.2188 138 24.2812C137.312 25.3438 136.729 26.2812 136.25 27.0938ZM215.188 42.25V39.3125C219.354 39.1667 222.604 38.5417 224.938 37.4375C227.271 36.3125 228.906 34.4688 229.844 31.9062C230.802 29.3438 231.281 25.8333 231.281 21.375C231.281 18.0833 230.99 15.3438 230.406 13.1562C229.844 10.9479 228.896 9.21875 227.562 7.96875C226.688 7.17708 225.656 6.55208 224.469 6.09375C223.281 5.63542 221.917 5.3125 220.375 5.125C218.833 4.9375 217.104 4.84375 215.188 4.84375V1.90625H265.812C273.625 1.90625 280.323 2.09375 285.906 2.46875C291.49 2.84375 296.062 3.53125 299.625 4.53125C303.188 5.53125 305.812 6.94792 307.5 8.78125C309.188 10.6146 310.031 12.9896 310.031 15.9062C310.031 18.6771 309.354 20.9271 308 22.6562C306.646 24.3646 304.865 25.6771 302.656 26.5938C301.073 27.2396 299.385 27.7292 297.594 28.0625C295.76 28.4375 293.792 28.6979 291.688 28.8438C289.583 28.9688 287.406 29.0312 285.156 29.0312C281.698 29.0312 278.177 28.9167 274.594 28.6875C271.01 28.4583 267.552 28.3021 264.219 28.2188C264.656 30.8854 265.521 33.0104 266.812 34.5938C268.125 36.1562 270.052 37.3021 272.594 38.0312C275.135 38.7396 278.49 39.1667 282.656 39.3125V42.25H215.188ZM263.844 24.3438C265.698 24.2188 267.396 23.9688 268.938 23.5938C270.5 23.1979 271.844 22.625 272.969 21.875C274.073 21.1458 274.927 20.2188 275.531 19.0938C276.156 17.9688 276.469 16.5938 276.469 14.9688C276.469 13.1771 276.177 11.7083 275.594 10.5625C275.031 9.39583 274.198 8.45833 273.094 7.75C272.01 7.0625 270.677 6.57292 269.094 6.28125C267.51 5.96875 265.74 5.77083 263.781 5.6875V22.9062L263.844 24.3438ZM312.812 42.25V39.3125C316.979 39.1667 320.229 38.5417 322.562 37.4375C324.896 36.3125 326.531 34.4688 327.469 31.9062C328.427 29.3438 328.906 25.8333 328.906 21.375C328.906 18.0833 328.615 15.3438 328.031 13.1562C327.469 10.9479 326.521 9.21875 325.188 7.96875C324.312 7.17708 323.281 6.55208 322.094 6.09375C320.906 5.63542 319.542 5.3125 318 5.125C316.458 4.9375 314.729 4.84375 312.812 4.84375V1.90625H363.438C371.25 1.90625 377.948 2.09375 383.531 2.46875C389.115 2.84375 393.688 3.53125 397.25 4.53125C400.812 5.53125 403.438 6.94792 405.125 8.78125C406.812 10.6146 407.656 12.9896 407.656 15.9062C407.656 18.6771 406.979 20.9271 405.625 22.6562C404.271 24.3646 402.49 25.6771 400.281 26.5938C398.698 27.2396 397.01 27.7292 395.219 28.0625C393.385 28.4375 391.417 28.6979 389.312 28.8438C387.208 28.9688 385.031 29.0312 382.781 29.0312C379.323 29.0312 375.802 28.9167 372.219 28.6875C368.635 28.4583 365.177 28.3021 361.844 28.2188C362.281 30.8854 363.146 33.0104 364.438 34.5938C365.75 36.1562 367.677 37.3021 370.219 38.0312C372.76 38.7396 376.115 39.1667 380.281 39.3125V42.25H312.812ZM361.469 24.3438C363.323 24.2188 365.021 23.9688 366.562 23.5938C368.125 23.1979 369.469 22.625 370.594 21.875C371.698 21.1458 372.552 20.2188 373.156 19.0938C373.781 17.9688 374.094 16.5938 374.094 14.9688C374.094 13.1771 373.802 11.7083 373.219 10.5625C372.656 9.39583 371.823 8.45833 370.719 7.75C369.635 7.0625 368.302 6.57292 366.719 6.28125C365.135 5.96875 363.365 5.77083 361.406 5.6875V22.9062L361.469 24.3438ZM410.438 42.25V39.3125C414.604 39.1667 417.854 38.5417 420.188 37.4375C422.521 36.3125 424.156 34.4688 425.094 31.9062C426.052 29.3438 426.531 25.8333 426.531 21.375C426.531 18.0833 426.24 15.3438 425.656 13.1562C425.094 10.9479 424.146 9.21875 422.812 7.96875C421.938 7.17708 420.906 6.55208 419.719 6.09375C418.531 5.63542 417.167 5.3125 415.625 5.125C414.083 4.9375 412.354 4.84375 410.438 4.84375V1.90625H475.094V4.84375C472.24 4.84375 469.792 5.07292 467.75 5.53125C465.708 5.96875 464.042 6.78125 462.75 7.96875C461.479 9.15625 460.542 10.8333 459.938 13C459.333 15.1458 459.031 17.9375 459.031 21.375C459.031 25.875 459.5 29.4062 460.438 31.9688C461.396 34.5312 463.042 36.3646 465.375 37.4688C467.708 38.5521 470.948 39.1667 475.094 39.3125V42.25H410.438ZM481.375 42.25V39.3125C485.542 39.1667 488.792 38.5417 491.125 37.4375C493.458 36.3125 495.094 34.4688 496.031 31.9062C496.99 29.3438 497.469 25.8333 497.469 21.375C497.469 18.0833 497.177 15.3438 496.594 13.1562C496.031 10.9479 495.083 9.21875 493.75 7.96875C492.875 7.17708 491.844 6.55208 490.656 6.09375C489.469 5.63542 488.104 5.3125 486.562 5.125C485.021 4.9375 483.292 4.84375 481.375 4.84375V1.90625H535.938L563.469 24.2812L563.531 21.375C563.531 17.9375 563.229 15.1458 562.625 13C562.021 10.8333 561.073 9.15625 559.781 7.96875C558.51 6.78125 556.854 5.96875 554.812 5.53125C552.771 5.07292 550.323 4.84375 547.469 4.84375V1.90625H581.844V4.84375C579.948 4.84375 578.26 4.9375 576.781 5.125C573.844 5.5 571.688 6.44792 570.312 7.96875C569.562 8.80208 568.979 9.8125 568.562 11C568.125 12.2083 567.812 13.6771 567.625 15.4062C567.438 17.1146 567.344 19.1042 567.344 21.375V42.25H535.281L523.844 32.4062L501.969 13.6562C501.49 15.6562 501.25 18.2292 501.25 21.375C501.25 25.875 501.729 29.4062 502.688 31.9688C503.646 34.5312 505.292 36.3646 507.625 37.4688C509.979 38.5521 513.208 39.1667 517.312 39.3125V42.25H481.375ZM625.781 44.0312C623.969 44.0312 622.167 44 620.375 43.9375C618.604 43.875 616.844 43.7917 615.094 43.6875C611.573 43.4583 608.229 43.0521 605.062 42.4688C601.917 41.9062 599.01 41.125 596.344 40.125C593.719 39.1667 591.417 37.9062 589.438 36.3438C587.479 34.8021 585.948 32.9583 584.844 30.8125C583.76 28.6667 583.219 26.1458 583.219 23.25C583.219 18.5833 584.625 14.5208 587.438 11.0625C590.25 7.60417 594.323 4.92708 599.656 3.03125C605.01 1.11458 611.469 0.15625 619.031 0.15625C621.781 0.15625 624.26 0.21875 626.469 0.34375C628.698 0.46875 630.708 0.625 632.5 0.8125C634.312 0.979167 635.948 1.16667 637.406 1.375C639.448 1.66667 641.385 1.94792 643.219 2.21875C645.052 2.46875 646.708 2.59375 648.188 2.59375C651 2.59375 652.917 1.72917 653.938 0H661.75C662.583 1.4375 663.24 3.22917 663.719 5.375C664.198 7.5 664.531 9.66667 664.719 11.875C664.927 14.0833 665.031 16.0208 665.031 17.6875H660.344C659.76 15.5625 658.698 13.7188 657.156 12.1562C655.615 10.5729 653.771 9.26042 651.625 8.21875C649.521 7.17708 647.312 6.41667 645 5.9375C642.708 5.45833 640.552 5.21875 638.531 5.21875C633.573 5.21875 629.333 6.61458 625.812 9.40625C623.979 10.8438 622.521 12.6667 621.438 14.875C620.375 17.0833 619.844 19.6458 619.844 22.5625C619.844 25.9583 620.573 28.9896 622.031 31.6562C623.51 34.3021 625.51 36.3854 628.031 37.9062C630.552 39.4271 633.385 40.1875 636.531 40.1875C636.906 40.1875 637.427 40.1771 638.094 40.1562C638.76 40.1354 639.427 40.1042 640.094 40.0625C640.76 40 641.26 39.9375 641.594 39.875C641.594 38.7917 641.583 37.7917 641.562 36.875C641.562 35.9375 641.552 35.0833 641.531 34.3125C641.469 32.7708 641.302 31.4792 641.031 30.4375C640.781 29.3958 640.385 28.5625 639.844 27.9375C639.281 27.3333 638.49 26.8646 637.469 26.5312C636.448 26.2188 635.156 26.0208 633.594 25.9375C632.052 25.8333 630.156 25.7812 627.906 25.7812V22.8438H673.5V25.7812C671.104 25.7812 669.417 26.1146 668.438 26.7812C667.479 27.4271 667 28.5521 667 30.1562C667 32.0729 667.271 34.0833 667.812 36.1875C668.375 38.2708 669.135 40.1458 670.094 41.8125C662.656 42.5417 655.26 43.0938 647.906 43.4688C640.573 43.8438 633.198 44.0312 625.781 44.0312ZM723.344 44.0312C721.552 44.0312 719.76 44 717.969 43.9375C716.198 43.875 714.417 43.7917 712.625 43.6875C709.042 43.4583 705.625 43.0312 702.375 42.4062C699.125 41.8021 696.104 40.9792 693.312 39.9375C690.5 38.9167 688.073 37.5833 686.031 35.9375C683.969 34.3125 682.344 32.3646 681.156 30.0938C679.99 27.8229 679.406 25.1562 679.406 22.0938C679.406 19.0312 680 16.3646 681.188 14.0938C682.354 11.8229 683.958 9.875 686 8.25C688.062 6.625 690.5 5.29167 693.312 4.25C696.146 3.20833 699.167 2.375 702.375 1.75C705.625 1.14583 709.031 0.729167 712.594 0.5C716.177 0.270833 719.76 0.15625 723.344 0.15625C725.135 0.15625 726.927 0.1875 728.719 0.25C730.51 0.3125 732.302 0.395833 734.094 0.5C737.656 0.729167 741.062 1.15625 744.312 1.78125C747.583 2.38542 750.625 3.20833 753.438 4.25C756.208 5.27083 758.635 6.60417 760.719 8.25C762.76 9.875 764.365 11.8229 765.531 14.0938C766.719 16.3646 767.312 19.0312 767.312 22.0938C767.312 25.1354 766.729 27.8021 765.562 30.0938C764.375 32.3646 762.75 34.3125 760.688 35.9375C758.646 37.5625 756.229 38.8958 753.438 39.9375C752.042 40.4583 750.583 40.9271 749.062 41.3438C747.542 41.7604 745.969 42.1146 744.344 42.4062C741.073 43.0312 737.646 43.4583 734.062 43.6875C730.5 43.9167 726.927 44.0312 723.344 44.0312ZM723.188 40.5C725.229 40.5 726.802 39.6875 727.906 38.0625C729.031 36.4167 729.812 34.2083 730.25 31.4375C730.688 28.6458 730.906 25.5312 730.906 22.0938C730.906 18.5521 730.677 15.3958 730.219 12.625C729.781 9.85417 729 7.67708 727.875 6.09375C726.771 4.48958 725.208 3.6875 723.188 3.6875C721.688 3.6875 720.448 4.20833 719.469 5.25C718.51 6.27083 717.76 7.65625 717.219 9.40625C716.698 11.1354 716.333 13.0833 716.125 15.25C715.917 17.3958 715.812 19.6771 715.812 22.0938C715.812 25.5312 716 28.6458 716.375 31.4375C716.75 34.2083 717.469 36.4167 718.531 38.0625C719.594 39.6875 721.146 40.5 723.188 40.5Z" fill="#1F4E8C"/>
</svg>
